<svg width="24" height="24" viewBox="0 0 24 24" fill="none" xmlns="http://www.w3.org/2000/svg">
<path fill-rule="evenodd" clip-rule="evenodd" d="M4.5 5.15789L12 2L19.5 5.15789V13.0526C18.4286 20.9474 12 22 12 22C12 22 5.57143 20.9474 4.5 13.0526V5.15789ZM12.4372 8.05071C12.2467 7.70761 11.7533 7.7076 11.5628 8.05071L10.7794 9.46196C10.7069 9.59262 10.5797 9.68399 10.4328 9.71103L8.83876 10.0043C8.44683 10.0764 8.29263 10.5556 8.56895 10.8427L9.6728 11.9898C9.7783 12.0995 9.82814 12.2512 9.80822 12.402L9.60032 13.9761C9.54863 14.3674 9.94958 14.6615 10.3073 14.4947L11.7887 13.8038C11.9226 13.7414 12.0774 13.7414 12.2113 13.8038L13.6927 14.4947C14.0504 14.6615 14.4514 14.3674 14.3997 13.9761L14.1918 12.402C14.1719 12.2512 14.2217 12.0995 14.3272 11.9898L15.4311 10.8427C15.7074 10.5556 15.5532 10.0764 15.1613 10.0043L13.5672 9.71103C13.4203 9.68399 13.2931 9.59262 13.2206 9.46196L12.4372 8.05071Z" fill="#C4C4C4"/>
</svg>
